<svg xmlns="http://www.w3.org/2000/svg" viewBox="0 0 64 64"><defs><style>.cls-1{isolation:isolate;}.cls-2{fill:#0095e8;}.cls-3{fill:#e2e2e2;}.cls-4{fill:red;}.cls-5{fill:#fb0;}.cls-6,.cls-7,.cls-8{fill:none;}.cls-6,.cls-7{stroke:#000;stroke-width:2px;}.cls-6{stroke-linecap:round;stroke-linejoin:round;}.cls-7{stroke-miterlimit:10;}.cls-9{opacity:0.25;mix-blend-mode:multiply;}.cls-10,.cls-11{mix-blend-mode:overlay;}.cls-11{fill:#fff;}</style></defs><title>Icon Color</title><g class="cls-1"><g id="Layer_1" data-name="Layer 1"><g id="Vector"><path class="cls-2" d="M27.18,55.3A8.13,8.13,0,1,1,16.41,43.13a2.16,2.16,0,0,0,.8-1.69V10.77a4.35,4.35,0,0,1,7.43-3,4.3,4.3,0,0,1,1.26,3.05V41.43a2.16,2.16,0,0,0,.81,1.68,8.15,8.15,0,0,1,3,6.32,7.73,7.73,0,0,1-.24,1.93l3.74-6.48a12.42,12.42,0,0,0-2.93-4.43V10.77a8.71,8.71,0,0,0-8.69-8.69,8.71,8.71,0,0,0-8.72,8.69V40.46A12.49,12.49,0,1,0,31.79,56.58H26.43Z"/><path class="cls-3" d="M25.9,10.77V35.82H17.21v-25a4.35,4.35,0,0,1,7.43-3A4.3,4.3,0,0,1,25.9,10.77Z"/><path class="cls-4" d="M29.69,49.43a7.73,7.73,0,0,1-.24,1.93L27.18,55.3A8.13,8.13,0,1,1,16.41,43.13a2.16,2.16,0,0,0,.8-1.69V35.82H25.9v5.61a2.16,2.16,0,0,0,.81,1.68A8.15,8.15,0,0,1,29.69,49.43Z"/><polygon class="cls-5" points="54.94 56.58 26.43 56.58 27.18 55.3 29.45 51.36 33.19 44.88 33.56 44.24 40.69 31.9 47.81 44.24 54.94 56.58"/><path d="M39.09,52.54a1.39,1.39,0,0,1,.12-.57,1.31,1.31,0,0,1,.33-.45,1.69,1.69,0,0,1,.5-.31,1.88,1.88,0,0,1,.65-.11,1.83,1.83,0,0,1,.64.11,1.62,1.62,0,0,1,.51.31,1.45,1.45,0,0,1,.33.45,1.56,1.56,0,0,1,0,1.15,1.45,1.45,0,0,1-.33.45,1.44,1.44,0,0,1-.51.3,1.62,1.62,0,0,1-.64.11,1.67,1.67,0,0,1-.65-.11,1.48,1.48,0,0,1-.5-.3,1.31,1.31,0,0,1-.33-.45A1.4,1.4,0,0,1,39.09,52.54Zm2.78-2.64H39.55l-.37-8.48h3.06Z"/></g><g id="Line"><path class="cls-6" d="M27.18,55.3A8.13,8.13,0,1,1,16.41,43.13a2.16,2.16,0,0,0,.8-1.69V10.77a4.35,4.35,0,0,1,7.43-3,4.3,4.3,0,0,1,1.26,3.05V41.43a2.16,2.16,0,0,0,.81,1.68,8.15,8.15,0,0,1,3,6.32,7.73,7.73,0,0,1-.24,1.93l3.74-6.48a12.42,12.42,0,0,0-2.93-4.43V10.77a8.71,8.71,0,0,0-8.69-8.69,8.71,8.71,0,0,0-8.72,8.69V40.46A12.49,12.49,0,1,0,31.79,56.58H26.43Z"/><path class="cls-6" d="M25.9,10.77V35.82H17.21v-25a4.35,4.35,0,0,1,7.43-3A4.3,4.3,0,0,1,25.9,10.77Z"/><path class="cls-7" d="M29.69,49.43a7.73,7.73,0,0,1-.24,1.93L27.18,55.3A8.13,8.13,0,1,1,16.41,43.13a2.16,2.16,0,0,0,.8-1.69V35.82H25.9v5.61a2.16,2.16,0,0,0,.81,1.68A8.15,8.15,0,0,1,29.69,49.43Z"/><polygon class="cls-6" points="54.94 56.58 26.43 56.58 27.18 55.3 29.45 51.36 33.19 44.88 33.56 44.24 40.69 31.9 47.81 44.24 54.94 56.58"/><path class="cls-8" d="M39.09,52.54a1.39,1.39,0,0,1,.12-.57,1.31,1.31,0,0,1,.33-.45,1.69,1.69,0,0,1,.5-.31,1.88,1.88,0,0,1,.65-.11,1.83,1.83,0,0,1,.64.11,1.62,1.62,0,0,1,.51.31,1.45,1.45,0,0,1,.33.45,1.56,1.56,0,0,1,0,1.15,1.45,1.45,0,0,1-.33.45,1.44,1.44,0,0,1-.51.3,1.62,1.62,0,0,1-.64.11,1.67,1.67,0,0,1-.65-.11,1.48,1.48,0,0,1-.5-.3,1.31,1.31,0,0,1-.33-.45A1.4,1.4,0,0,1,39.09,52.54Zm2.78-2.64H39.55l-.37-8.48h3.06Z"/></g><g id="Shadow" class="cls-9"><path d="M42.51,35.05,40.69,31.9l-5.13,8.88C33,45,30.8,48.15,29.27,50.29c-1.36,1.89-2.74,3.71-2.09,5,.51,1,2.05,1.27,3.05,1.33Q36.37,45.85,42.51,35.05Z"/><path d="M14.06,49.43a12.5,12.5,0,0,1,3.79-9V10.77a8.71,8.71,0,0,1,6.23-8.32,8.81,8.81,0,0,0-2.51-.37,8.71,8.71,0,0,0-8.72,8.69V40.46a12.5,12.5,0,0,0,8.72,21.46A12.24,12.24,0,0,0,24,61.65,12.51,12.51,0,0,1,14.06,49.43Z"/></g><g id="Highligth" class="cls-10"><path class="cls-11" d="M19,61.65a12,12,0,0,0,2.56.27,12.49,12.49,0,0,0,10.22-5.34h-5A12.5,12.5,0,0,1,19,61.65Z"/><polygon class="cls-11" points="40.69 31.9 38.19 36.23 42.81 44.24 49.94 56.58 54.94 56.58 47.81 44.24 40.69 31.9"/><path class="cls-11" d="M28.19,44.88l.37-.64.74,2.68c.24.35.86,1.12,1.57,1.09,1,0,2-1.58,2-3.9a23.7,23.7,0,0,1-2.39-5.4c-1.37-4.58-.93-8.24-.64-11.73a147.81,147.81,0,0,0,.43-16.21,8.71,8.71,0,0,0-8.69-8.69,8.52,8.52,0,0,0-2.49.37,8.72,8.72,0,0,1,6.18,8.32V40.45A12.42,12.42,0,0,1,28.19,44.88Z"/></g></g></g></svg>