<svg xmlns="http://www.w3.org/2000/svg" viewBox="0 0 64 64"><defs><style>.cls-1{isolation:isolate;}.cls-2{fill:#fb0;}.cls-3{fill:none;stroke:#000;stroke-linecap:round;stroke-linejoin:round;stroke-width:2px;}.cls-4{opacity:0.25;mix-blend-mode:multiply;}.cls-5,.cls-6{mix-blend-mode:overlay;}.cls-6{fill:#fff;}</style></defs><title>Icon Color</title><g class="cls-1"><g id="Layer_1" data-name="Layer 1"><g id="Vector"><path class="cls-2" d="M60.27,44.25A29.67,29.67,0,0,1,37.88,61.11a29.23,29.23,0,0,1-4.52.34A29.64,29.64,0,0,1,26.64,3c.7-.15,1.38-.29,2.09-.4A29.64,29.64,0,0,0,55.64,44.62,29.42,29.42,0,0,0,60.27,44.25Z"/></g><g id="Line"><path class="cls-3" d="M60.27,44.25A29.67,29.67,0,0,1,37.88,61.11a29.23,29.23,0,0,1-4.52.34A29.64,29.64,0,0,1,26.64,3c.7-.15,1.38-.29,2.09-.4A29.64,29.64,0,0,0,55.64,44.62,29.42,29.42,0,0,0,60.27,44.25Z"/></g><g id="Shadow" class="cls-4"><path d="M8.73,31.82A29.64,29.64,0,0,1,28.1,4c.19-.49.4-1,.63-1.47-.71.11-1.39.25-2.09.4a29.64,29.64,0,0,0,6.72,58.5c.85,0,1.7,0,2.53-.11A29.64,29.64,0,0,1,8.73,31.82Z"/></g><g id="Highligth" class="cls-5"><path class="cls-6" d="M60.27,44.25a29.42,29.42,0,0,1-4.63.37l-.55,0A29.62,29.62,0,0,1,32.88,61.11c-.66.1-1.32.17-2,.23.82.07,1.64.11,2.47.11a29.47,29.47,0,0,0,16.1-4.75A29.73,29.73,0,0,0,60.27,44.25Z"/><path class="cls-6" d="M26,15A29.58,29.58,0,0,1,28.73,2.55c-.71.11-1.39.25-2.09.4A32.18,32.18,0,0,0,23.1,4a29.64,29.64,0,0,0,27.54,40.6c.85,0,1.68,0,2.51-.12A29.63,29.63,0,0,1,26,15Z"/></g></g></g></svg>