<?xml version="1.0" encoding="UTF-8"?>
<svg version="1.1" xmlns="http://www.w3.org/2000/svg" width="585" height="427">
<path d="M0 0 C0.77714355 0.21962402 1.55428711 0.43924805 2.35498047 0.66552734 C24.54738601 7.06901295 43.86429278 18.64342012 57 38 C57.66257812 38.95519531 58.32515625 39.91039062 59.0078125 40.89453125 C62.72115536 46.44900854 65.20581895 51.56205623 67 58 C67.71542969 58.04898438 68.43085938 58.09796875 69.16796875 58.1484375 C90.72262103 59.76573353 111.1565241 64.33227593 129 77 C129.763125 77.54011719 130.52625 78.08023438 131.3125 78.63671875 C134.79052905 81.17491274 138.18496552 83.71579311 141 87 C141 87.66 141 88.32 141 89 C141.99 89.33 142.98 89.66 144 90 C161.69019774 109.75032203 164.90050934 135.66416975 164 161 C162.72498648 179.9739993 154.96703583 197.32758539 143 212 C142.34 212 141.68 212 141 212 C140.79632813 212.54140625 140.59265625 213.0828125 140.3828125 213.640625 C138.44687192 216.94375526 135.71300664 219.24122847 132.875 221.75 C132.31167969 222.25660156 131.74835938 222.76320312 131.16796875 223.28515625 C129.78348469 224.52884532 128.39238512 225.76516305 127 227 C127.53348139 229.66740694 128.32844838 231.66853796 129.54296875 234.140625 C131.50902278 238.62557358 131.40578698 242.92146569 131.3125 247.75 C131.31733398 249.02423828 131.31733398 249.02423828 131.32226562 250.32421875 C131.26775085 256.59837372 131.26775085 256.59837372 129 260 C128.64927764 264.12098777 129.14586326 266.40079338 131 270 C132.42716347 277.42125004 133.03776061 284.95239538 130 292 C122.54269803 301.89264806 115.69285484 305.13042913 103.89648438 307.37304688 C98.17983577 308.53782012 93.24902109 310.48113773 88 313 C86.54819153 313.66952884 85.09506944 314.33621684 83.640625 315 C82.92390625 315.32790527 82.2071875 315.65581055 81.46875 315.99365234 C73.45994269 319.62616816 65.53514785 322.78761516 57 325 C56.18917969 325.22429687 55.37835938 325.44859375 54.54296875 325.6796875 C30.64447437 331.46605596 7.73256588 321.74306079 -13.80078125 312.34765625 C-31.51321231 304.88637577 -48.82363951 309.19730042 -66 316 C-89.36405743 324.97746207 -110.94953778 326.72256155 -134.2734375 316.6796875 C-138.74168559 314.69144651 -143.15625964 312.58799564 -147.56640625 310.47460938 C-152.429456 308.17674126 -157.35617701 306.44797885 -162.4765625 304.828125 C-169.45392369 302.53834083 -175.66556834 298.98919454 -179.2109375 292.31640625 C-181.88375428 284.46996887 -181.68837522 275.76641729 -179 268 C-178.67 267.34 -178.34 266.68 -178 266 C-177.74139865 261.94857881 -177.69558446 260.45662331 -180 257 C-181.72711028 246.03842106 -180.56408455 237.95800266 -176 228 C-176.721875 227.44570312 -177.44375 226.89140625 -178.1875 226.3203125 C-179.115625 225.59585938 -180.04375 224.87140625 -181 224.125 C-181.928125 223.40570313 -182.85625 222.68640625 -183.8125 221.9453125 C-184.534375 221.30335938 -185.25625 220.66140625 -186 220 C-186 219.34 -186 218.68 -186 218 C-186.57105469 217.77828125 -187.14210937 217.5565625 -187.73046875 217.328125 C-198.36430307 211.10522712 -205.54138336 193.16293117 -209 182 C-214.44567957 158.19574166 -212.76837368 132.48431273 -199.62890625 111.44140625 C-187.03883046 92.57138858 -168.56277663 79.48032899 -146.125 75 C-145.40570313 74.87625 -144.68640625 74.7525 -143.9453125 74.625 C-141.40927309 73.81020822 -140.56651886 73.18430095 -139 71 C-138.13215508 68.35033396 -137.38182145 65.75607954 -136.6875 63.0625 C-133.12181998 50.25662261 -127.29375299 40.38981056 -119 30 C-117.93652344 28.59041016 -117.93652344 28.59041016 -116.8515625 27.15234375 C-116.24054688 26.44207031 -115.62953125 25.73179688 -115 25 C-114.34 25 -113.68 25 -113 25 C-112.505 23.515 -112.505 23.515 -112 22 C-105.82844193 16.04431947 -98.6671169 11.73160211 -91 8 C-90.01 7.50757813 -89.02 7.01515625 -88 6.5078125 C-84.3893967 4.83270087 -80.73847363 3.35835765 -77 2 C-75.84951172 1.58089355 -75.84951172 1.58089355 -74.67578125 1.15332031 C-51.36094094 -6.94465209 -23.64718461 -6.91080743 0 0 Z " fill="#D4D8DE" transform="translate(317,23)"/>
<path d="M0 0 C0.66 0 1.32 0 2 0 C4.32622007 4.65244014 2.98524838 11.0737581 2 16 C2.99 16.33 3.98 16.66 5 17 C7.8703004 22.20906369 8.57270559 26.0820422 8 32 C6.625 35 6.625 35 5 37 C4.34 37 3.68 37 3 37 C2.94550162 38.72880982 2.90698312 40.45812712 2.875 42.1875 C2.84019531 43.63189453 2.84019531 43.63189453 2.8046875 45.10546875 C3.0086456 48.12812778 3.73125368 50.26769985 5 53 C5.66 53 6.32 53 7 53 C8.94645517 56.89291034 8.36455518 61.57492068 7.3125 65.6875 C3.38422166 72.60875231 -1.05371296 73.98992771 -8.5390625 76.109375 C-11.66299389 76.91327608 -14.7945068 77.65034205 -17.9375 78.375 C-26.67488896 80.49875108 -34.83325567 84.23242095 -42.6875 88.5625 C-57.04337558 95.82294282 -75.2714143 99.11612202 -90.82421875 94.18359375 C-97.76715172 91.59600619 -104.63810709 88.83861468 -111.49291992 86.02709961 C-114.11550069 84.95268172 -116.73961554 83.88247119 -119.3671875 82.8203125 C-120.15851074 82.49949707 -120.94983398 82.17868164 -121.76513672 81.84814453 C-141.50680002 74.35606038 -163.14985075 77.73749081 -182.3125 85 C-202.00301445 92.34329255 -221.95012898 96.22122235 -241.96289062 87.10595703 C-244.69136854 85.78719271 -247.38847544 84.41655131 -250.07128906 83.00732422 C-257.63945717 79.04507829 -265.50991312 76.22287189 -273.7578125 73.9765625 C-277.37011924 72.8885183 -278.75320872 71.9957217 -281 69 C-283.01360168 64.57007629 -284.11160549 59.81088278 -283 55 C-281.5859375 53.0625 -281.5859375 53.0625 -279.875 51.125 C-277.76788658 48.64372626 -276.98865693 47.64277405 -277.046875 44.34375 C-277.5787138 41.84267022 -278.24661606 39.44169011 -279 37 C-279 36.34 -279 35.68 -279 35 C-279.66 35 -280.32 35 -281 35 C-283.34402262 31.33746465 -283.2947685 28.27414327 -283 24 C-282.0804117 20.51870145 -281.54972745 18.54972745 -279 16 C-278.5342637 13.44132526 -278.16515752 10.95312092 -277.875 8.375 C-277.78863281 7.66859375 -277.70226562 6.9621875 -277.61328125 6.234375 C-277.40118817 4.49049859 -277.19959009 2.7453516 -277 1 C-275.68 1 -274.36 1 -273 1 C-273 1.66 -273 2.32 -273 3 C-259.66390563 7.66763303 -246.9903971 10.15049238 -232.86351013 10.14717102 C-232.0012474 10.15084771 -231.13898467 10.1545244 -230.25059277 10.1583125 C-227.39158355 10.1692329 -224.53261081 10.17317312 -221.67358398 10.17700195 C-219.61104724 10.18327537 -217.54851161 10.18992293 -215.48597717 10.19691467 C-208.73935721 10.21785132 -201.99273729 10.22830663 -195.24609375 10.23828125 C-192.91426139 10.24233255 -190.58242913 10.24644958 -188.250597 10.25063133 C-177.29263034 10.26965938 -166.33467031 10.28389595 -155.37669033 10.2922433 C-142.76727837 10.30200996 -130.15804222 10.32832483 -117.54869217 10.36874419 C-107.77505586 10.39898883 -98.00146972 10.41372003 -88.22778755 10.41702431 C-82.40287673 10.41936499 -76.57815422 10.42819727 -70.75329399 10.45348549 C-65.26777256 10.47691817 -59.78256148 10.48093881 -54.29700279 10.47072411 C-52.2964906 10.47023234 -50.29596231 10.47644537 -48.29549789 10.49028015 C-31.51267778 10.59974838 -16.22638398 8.52922296 -1 1 C-0.67 0.67 -0.34 0.34 0 0 Z " fill="#C1C7CE" transform="translate(430,243)"/>
<path d="M0 0 C0.77714355 0.21962402 1.55428711 0.43924805 2.35498047 0.66552734 C24.54738601 7.06901295 43.86429278 18.64342012 57 38 C57.66257812 38.95519531 58.32515625 39.91039062 59.0078125 40.89453125 C62.72115536 46.44900854 65.20581895 51.56205623 67 58 C67.71542969 58.04898438 68.43085938 58.09796875 69.16796875 58.1484375 C90.72262103 59.76573353 111.1565241 64.33227593 129 77 C129.763125 77.54011719 130.52625 78.08023438 131.3125 78.63671875 C134.79052905 81.17491274 138.18496552 83.71579311 141 87 C141 87.66 141 88.32 141 89 C141.99 89.33 142.98 89.66 144 90 C161.69019774 109.75032203 164.90050934 135.66416975 164 161 C162.72498648 179.9739993 154.96703583 197.32758539 143 212 C142.34 212 141.68 212 141 212 C140.79632813 212.54140625 140.59265625 213.0828125 140.3828125 213.640625 C138.44687192 216.94375526 135.71300664 219.24122847 132.875 221.75 C132.31167969 222.25660156 131.74835938 222.76320312 131.16796875 223.28515625 C129.78348469 224.52884532 128.39238512 225.76516305 127 227 C127.53348139 229.66740694 128.32844838 231.66853796 129.54296875 234.140625 C131.50902278 238.62557358 131.40578698 242.92146569 131.3125 247.75 C131.31733398 249.02423828 131.31733398 249.02423828 131.32226562 250.32421875 C131.26775085 256.59837372 131.26775085 256.59837372 129 260 C128.64927764 264.12098777 129.14586326 266.40079338 131 270 C132.42716347 277.42125004 133.03776061 284.95239538 130 292 C122.54269803 301.89264806 115.69285484 305.13042913 103.89648438 307.37304688 C98.17983577 308.53782012 93.24902109 310.48113773 88 313 C86.54819153 313.66952884 85.09506944 314.33621684 83.640625 315 C82.92390625 315.32790527 82.2071875 315.65581055 81.46875 315.99365234 C73.45994269 319.62616816 65.53514785 322.78761516 57 325 C56.18917969 325.22429687 55.37835938 325.44859375 54.54296875 325.6796875 C30.64447437 331.46605596 7.73256588 321.74306079 -13.80078125 312.34765625 C-31.51321231 304.88637577 -48.82363951 309.19730042 -66 316 C-89.36405743 324.97746207 -110.94953778 326.72256155 -134.2734375 316.6796875 C-138.74168559 314.69144651 -143.15625964 312.58799564 -147.56640625 310.47460938 C-152.429456 308.17674126 -157.35617701 306.44797885 -162.4765625 304.828125 C-169.45392369 302.53834083 -175.66556834 298.98919454 -179.2109375 292.31640625 C-181.88375428 284.46996887 -181.68837522 275.76641729 -179 268 C-178.67 267.34 -178.34 266.68 -178 266 C-177.74139865 261.94857881 -177.69558446 260.45662331 -180 257 C-181.72711028 246.03842106 -180.56408455 237.95800266 -176 228 C-176.721875 227.44570312 -177.44375 226.89140625 -178.1875 226.3203125 C-179.115625 225.59585938 -180.04375 224.87140625 -181 224.125 C-181.928125 223.40570313 -182.85625 222.68640625 -183.8125 221.9453125 C-184.534375 221.30335938 -185.25625 220.66140625 -186 220 C-186 219.34 -186 218.68 -186 218 C-186.57105469 217.77828125 -187.14210937 217.5565625 -187.73046875 217.328125 C-198.36430307 211.10522712 -205.54138336 193.16293117 -209 182 C-214.44567957 158.19574166 -212.76837368 132.48431273 -199.62890625 111.44140625 C-187.03883046 92.57138858 -168.56277663 79.48032899 -146.125 75 C-145.40570313 74.87625 -144.68640625 74.7525 -143.9453125 74.625 C-141.40927309 73.81020822 -140.56651886 73.18430095 -139 71 C-138.13215508 68.35033396 -137.38182145 65.75607954 -136.6875 63.0625 C-133.12181998 50.25662261 -127.29375299 40.38981056 -119 30 C-117.93652344 28.59041016 -117.93652344 28.59041016 -116.8515625 27.15234375 C-116.24054688 26.44207031 -115.62953125 25.73179688 -115 25 C-114.34 25 -113.68 25 -113 25 C-112.505 23.515 -112.505 23.515 -112 22 C-105.82844193 16.04431947 -98.6671169 11.73160211 -91 8 C-90.01 7.50757813 -89.02 7.01515625 -88 6.5078125 C-84.3893967 4.83270087 -80.73847363 3.35835765 -77 2 C-75.84951172 1.58089355 -75.84951172 1.58089355 -74.67578125 1.15332031 C-51.36094094 -6.94465209 -23.64718461 -6.91080743 0 0 Z M-110.10449219 36.85009766 C-122.1923696 50.56027907 -126.71456383 66.45320124 -130 84 C-130.680625 84.01417969 -131.36125 84.02835937 -132.0625 84.04296875 C-153.91211553 85.11801632 -170.37856525 95.23285581 -185 111 C-185.6290625 111.66257812 -186.258125 112.32515625 -186.90625 113.0078125 C-197.67270867 125.42701702 -201.78984405 145.05943031 -200.9375 161.1875 C-199.79508077 173.76652908 -196.38267051 188.22021774 -188 198 C-187.690625 198.845625 -187.38125 199.69125 -187.0625 200.5625 C-185.67346941 203.7490996 -183.74282267 204.88054612 -181 207 C-179.45461997 208.79963278 -177.97803415 210.63506385 -176.52734375 212.51171875 C-174.73559486 214.25764286 -173.43833866 214.60671957 -171 215 C-171 215.66 -171 216.32 -171 217 C-168.36315253 219.39820305 -168.36315253 219.39820305 -165 220 C-165.08695958 222.60578866 -165.19381408 225.2081279 -165.3125 227.8125 C-165.33505859 228.55048828 -165.35761719 229.28847656 -165.38085938 230.04882812 C-165.65569445 235.5705147 -165.65569445 235.5705147 -167.5 237.87109375 C-167.995 238.24363281 -168.49 238.61617187 -169 239 C-170.42454882 243.66215977 -170.86845087 248.883151 -169 253.4375 C-168.505 254.2109375 -168.505 254.2109375 -168 255 C-167.34 255 -166.68 255 -166 255 C-165.93941406 255.68707031 -165.87882812 256.37414062 -165.81640625 257.08203125 C-165.73261719 257.98308594 -165.64882812 258.88414062 -165.5625 259.8125 C-165.48128906 260.70582031 -165.40007812 261.59914063 -165.31640625 262.51953125 C-165.06510233 265.12743559 -165.06510233 265.12743559 -164 268 C-165.21484375 269.54296875 -165.21484375 269.54296875 -166.9375 271.1875 C-169.30424647 273.80192924 -170.46560179 275.43553006 -170.5625 279 C-170.12578986 284.12141888 -168.612702 288.43760247 -164.87109375 292.0625 C-161.4806214 294.35049222 -158.16183916 295.2817985 -154.25 296.25 C-146.32983191 298.37899376 -139.22838867 301.48602205 -131.90234375 305.1328125 C-113.53964259 314.13746625 -94.97230995 314.29017424 -75.7265625 307.7265625 C-70.64611563 305.90222961 -65.62046062 303.93792482 -60.58911133 301.98339844 C-36.84643445 293.01615537 -13.17540413 299.43550793 9.06298828 309.09423828 C28.19723499 317.35666253 45.31938107 318.08388025 65 311 C70.14379332 308.88409782 75.1043523 306.40024958 80.08349609 303.92822266 C88.44976667 299.8761767 96.80671699 297.4886566 105.890625 295.671875 C110.98576305 294.57091552 114.65023866 293.38528137 118.375 289.5625 C121.42662411 284.75032351 121.18028584 280.58886112 121 275 C120.67 274.34 120.34 273.68 120 273 C119.34 273 118.68 273 118 273 C116.24836544 269.22777911 115.77509973 266.333361 115.875 262.1875 C115.89304687 261.21167969 115.91109375 260.23585938 115.9296875 259.23046875 C115.95289063 258.49441406 115.97609375 257.75835937 116 257 C116.66 257 117.32 257 118 257 C120.82371829 253.52465441 121.47076588 250.52826761 121.29296875 246.06640625 C120.80142701 242.59939851 119.69390138 240.07411731 118 237 C117.01 236.67 116.02 236.34 115 236 C115.165 235.236875 115.33 234.47375 115.5 233.6875 C116.16562149 228.77854151 116.07920078 223.94564886 116 219 C117.36125 218.6596875 117.36125 218.6596875 118.75 218.3125 C122.52085907 216.78965307 123.58735575 215.19091659 126 212 C126.78375 211.566875 127.5675 211.13375 128.375 210.6875 C132.1772403 208.24320266 134.63570112 204.8267518 137 201 C137 200.34 137 199.68 137 199 C137.66 199 138.32 199 139 199 C151.08820271 178.40528427 157.23141873 155.37507409 151.94140625 131.4765625 C147.73940022 115.53087354 139.48173734 100.03385581 127 89 C126.01 89 125.02 89 124 89 C123.64808594 88.11441406 123.64808594 88.11441406 123.2890625 87.2109375 C117.97108653 78.08980295 102.37750391 74.18497503 92.7578125 71.3359375 C90.69461254 70.88463418 90.69461254 70.88463418 87.3125 71 C86.219375 71 85.12625 71 84 71 C83.67 70.67 83.34 70.34 83 70 C81.21928754 69.91273777 79.4351686 69.89300959 77.65234375 69.90234375 C76.57275391 69.90556641 75.49316406 69.90878906 74.38085938 69.91210938 C72.67639648 69.92467773 72.67639648 69.92467773 70.9375 69.9375 C69.79732422 69.94201172 68.65714844 69.94652344 67.48242188 69.95117188 C64.65489649 69.96300253 61.8274736 69.9794859 59 70 C58.90203125 68.98808594 58.8040625 67.97617188 58.703125 66.93359375 C57.95991241 62.77573218 56.68559762 59.8032528 54.75 56.0625 C54.43716064 55.45712402 54.12432129 54.85174805 53.80200195 54.22802734 C51.41245877 49.65678049 48.95824805 45.22606864 46 41 C45.34 41 44.68 41 44 41 C42 37 42 37 41.14453125 35.05859375 C39.86891649 32.76422864 38.56605374 31.49948392 36.5625 29.8125 C35.50869141 28.92304687 35.50869141 28.92304687 34.43359375 28.015625 C33.63050781 27.35046875 32.82742188 26.6853125 32 26 C31.04222656 25.19046875 30.08445312 24.3809375 29.09765625 23.546875 C24.57239912 19.05080896 24.57239912 19.05080896 19 17 C19 16.34 19 15.68 19 15 C17.906875 14.608125 16.81375 14.21625 15.6875 13.8125 C12.18856906 12.50970657 8.82019492 11.01671393 5.4375 9.4375 C1.31958919 7.55293699 -2.57835709 6.0492034 -7 5 C-7.88945312 4.7421875 -8.77890625 4.484375 -9.6953125 4.21875 C-48.08583413 -5.77203635 -84.01015258 8.80266225 -110.10449219 36.85009766 Z " fill="#FDFDFD" transform="translate(317,23)"/>
<path d="M0 0 C7.95373833 1.83935448 15.15872086 5.20795691 22.5 8.68359375 C31.06910031 12.66019186 39.15611643 15.5725449 48.6875 15.4375 C49.46005127 15.42992676 50.23260254 15.42235352 51.02856445 15.41455078 C62.17305029 15.10100841 72.16799688 11.4823416 82.3581543 7.22338867 C104.27075096 -1.80215141 127.15801191 -2.52992719 149.11425781 6.53588867 C153.19970279 8.28056834 157.27506849 10.04660829 161.34179688 11.83447266 C180.25908492 20.12902934 196.10225303 20.73071462 215.39404297 13.22875977 C220.98723178 10.99389465 226.53545 8.6619709 232.0390625 6.21484375 C243.29172505 1.22591819 253.82963976 -2.07419785 266 2 C269 6.17857143 269 6.17857143 269 9 C269.66 9 270.32 9 271 9 C272.94645517 12.89291034 272.36455518 17.57492068 271.3125 21.6875 C267.38422166 28.60875231 262.94628704 29.98992771 255.4609375 32.109375 C252.33700611 32.91327608 249.2054932 33.65034205 246.0625 34.375 C237.32511104 36.49875108 229.16674433 40.23242095 221.3125 44.5625 C206.95662442 51.82294282 188.7285857 55.11612202 173.17578125 50.18359375 C166.23284828 47.59600619 159.36189291 44.83861468 152.50708008 42.02709961 C149.88449931 40.95268172 147.26038446 39.88247119 144.6328125 38.8203125 C143.84148926 38.49949707 143.05016602 38.17868164 142.23486328 37.84814453 C122.49319998 30.35606038 100.85014925 33.73749081 81.6875 41 C61.99698555 48.34329255 42.04987102 52.22122235 22.03710938 43.10595703 C19.30863146 41.78719271 16.61152456 40.41655131 13.92871094 39.00732422 C6.36054283 35.04507829 -1.50991312 32.22287189 -9.7578125 29.9765625 C-13.37011924 28.8885183 -14.75320872 27.9957217 -17 25 C-19.02833587 20.5376611 -20.05078437 15.84628997 -19 11 C-14.36962326 2.59616689 -9.50336893 -0.96462767 0 0 Z " fill="#D3D7DD" transform="translate(166,287)"/>
<path d="M0 0 C0.66 0 1.32 0 2 0 C3.58493084 3.16986168 3.2940042 6.54032261 3 10 C2 12.5 2 12.5 1 14 C0.505 13.835 0.01 13.67 -0.5 13.5 C-12.16514155 11.16697169 -23.71456424 16.10129626 -34.1484375 20.90234375 C-39.37039184 23.242563 -44.73073963 24.98249455 -50.1875 26.6875 C-51.14591797 26.99494141 -52.10433594 27.30238281 -53.09179688 27.61914062 C-76.86095387 35.12605476 -96.90497837 27.82997102 -118.984375 18.76708984 C-141.17527934 9.72880883 -163.26892484 13.11716586 -185 22 C-186.6286542 22.72096777 -188.25392795 23.44964198 -189.875 24.1875 C-200.7597316 29.11414552 -216.48063799 30.16178811 -228.125 27.20703125 C-230.48682271 26.24385043 -232.72497569 25.15005825 -235 24 C-236.53309163 23.47429459 -238.07510238 22.97387073 -239.625 22.5 C-242.51612066 21.56656663 -245.12909202 20.48442959 -247.8125 19.0625 C-257.15710174 14.24128117 -266.62632337 11.15187003 -277 14 C-277.19658808 12.58456585 -277.38187546 11.16755969 -277.5625 9.75 C-277.66691406 8.96109375 -277.77132812 8.1721875 -277.87890625 7.359375 C-278.00027349 4.99467126 -277.69633257 3.2488963 -277 1 C-275.68 1 -274.36 1 -273 1 C-273 1.66 -273 2.32 -273 3 C-259.66390563 7.66763303 -246.9903971 10.15049238 -232.86351013 10.14717102 C-232.0012474 10.15084771 -231.13898467 10.1545244 -230.25059277 10.1583125 C-227.39158355 10.1692329 -224.53261081 10.17317312 -221.67358398 10.17700195 C-219.61104724 10.18327537 -217.54851161 10.18992293 -215.48597717 10.19691467 C-208.73935721 10.21785132 -201.99273729 10.22830663 -195.24609375 10.23828125 C-192.91426139 10.24233255 -190.58242913 10.24644958 -188.250597 10.25063133 C-177.29263034 10.26965938 -166.33467031 10.28389595 -155.37669033 10.2922433 C-142.76727837 10.30200996 -130.15804222 10.32832483 -117.54869217 10.36874419 C-107.77505586 10.39898883 -98.00146972 10.41372003 -88.22778755 10.41702431 C-82.40287673 10.41936499 -76.57815422 10.42819727 -70.75329399 10.45348549 C-65.26777256 10.47691817 -59.78256148 10.48093881 -54.29700279 10.47072411 C-52.2964906 10.47023234 -50.29596231 10.47644537 -48.29549789 10.49028015 C-31.51267778 10.59974838 -16.22638398 8.52922296 -1 1 C-0.67 0.67 -0.34 0.34 0 0 Z " fill="#A4ABB5" transform="translate(430,243)"/>
<path d="M0 0 C-3.06311603 3.06311603 -6.87986581 3.84548091 -10.9375 5.1875 C-11.76185547 5.47302734 -12.58621094 5.75855469 -13.43554688 6.05273438 C-14.22896484 6.31763672 -15.02238281 6.58253906 -15.83984375 6.85546875 C-16.56550537 7.09934326 -17.29116699 7.34321777 -18.03881836 7.59448242 C-20 8 -20 8 -23 7 C-22.38125 6.731875 -21.7625 6.46375 -21.125 6.1875 C-18.7004767 5.04443152 -18.7004767 5.04443152 -17 2 C-11.52036926 0.12670759 -5.74626409 -0.24983757 0 0 Z " fill="#B3B8BD" transform="translate(266,288)"/>
<path d="M0 0 C1.32 0 2.64 0 4 0 C4 0.66 4 1.32 4 2 C4.66 2.33 5.32 2.66 6 3 C4.824375 3.6496875 4.824375 3.6496875 3.625 4.3125 C0.78301625 5.89220247 0.78301625 5.89220247 -1 9 C-0.67 6.03 -0.34 3.06 0 0 Z " fill="#ADB3BC" transform="translate(153,244)"/>
</svg>
