<?xml version="1.0" encoding="UTF-8"?>
<svg version="1.1" xmlns="http://www.w3.org/2000/svg" width="1184" height="864">
<path d="M0 0 C390.72 0 781.44 0 1184 0 C1184 285.12 1184 570.24 1184 864 C793.28 864 402.56 864 0 864 C0 578.88 0 293.76 0 0 Z " fill="#FCFDFD" transform="translate(0,0)"/>
<path d="M0 0 C0.94515472 0.00054382 1.89030945 0.00108765 2.86410522 0.00164795 C17.93973676 0.0414392 32.33960545 0.87055119 47.0625 4.375 C48.01833984 4.59994141 48.97417969 4.82488281 49.95898438 5.05664062 C79.04761355 12.09139905 107.51802902 24.28336746 130.0625 44.375 C130.89910156 45.10332031 131.73570312 45.83164063 132.59765625 46.58203125 C140.93406138 53.93919869 149.14916215 61.64236272 156.0625 70.375 C156.0625 71.035 156.0625 71.695 156.0625 72.375 C156.7225 72.375 157.3825 72.375 158.0625 72.375 C159.5703125 74.2734375 159.5703125 74.2734375 161.1875 76.75 C161.99574219 77.96816406 161.99574219 77.96816406 162.8203125 79.2109375 C164.0625 81.375 164.0625 81.375 164.0625 83.375 C164.7225 83.375 165.3825 83.375 166.0625 83.375 C166.3925 85.025 166.7225 86.675 167.0625 88.375 C167.7225 88.375 168.3825 88.375 169.0625 88.375 C171.09561107 92.02417372 173.08698002 95.69434026 175.0625 99.375 C175.61550781 100.40109375 176.16851563 101.4271875 176.73828125 102.484375 C180.47267618 109.66128112 183.59406303 116.95387528 186.5 124.5 C186.85433105 125.41313965 187.20866211 126.3262793 187.57373047 127.26708984 C187.89873535 128.13027832 188.22374023 128.9934668 188.55859375 129.8828125 C188.84919678 130.65254395 189.1397998 131.42227539 189.43920898 132.21533203 C190.0625 134.375 190.0625 134.375 190.0625 138.375 C191.46822266 138.1584375 191.46822266 138.1584375 192.90234375 137.9375 C229.77284901 132.69756589 265.49303255 138.69684313 298.015625 156.73828125 C300.97993586 158.44212383 300.97993586 158.44212383 304.0625 159.375 C304.0625 160.035 304.0625 160.695 304.0625 161.375 C305.0525 161.375 306.0425 161.375 307.0625 161.375 C307.0625 162.035 307.0625 162.695 307.0625 163.375 C307.7740625 163.61476562 308.485625 163.85453125 309.21875 164.1015625 C312.50127604 165.57148487 314.81861814 167.43003247 317.5625 169.75 C318.4803125 170.52085937 319.398125 171.29171875 320.34375 172.0859375 C321.68953125 173.21902344 321.68953125 173.21902344 323.0625 174.375 C324.0009375 175.08914062 324.939375 175.80328125 325.90625 176.5390625 C326.6178125 177.14492187 327.329375 177.75078125 328.0625 178.375 C328.0625 179.035 328.0625 179.695 328.0625 180.375 C328.92875 180.74625 328.92875 180.74625 329.8125 181.125 C332.39189979 182.55799988 334.12371592 184.15924676 336.0625 186.375 C336.0625 187.035 336.0625 187.695 336.0625 188.375 C336.7225 188.375 337.3825 188.375 338.0625 188.375 C344.102656 194.74717303 358.0625 209.56939254 358.0625 218.375 C358.7225 218.375 359.3825 218.375 360.0625 218.375 C364.97167105 228.48382559 369.72969658 238.62312358 373.0625 249.375 C373.3404541 250.26558105 373.6184082 251.15616211 373.90478516 252.07373047 C378.70976528 268.31190439 379.64848506 284.04191861 379.6875 300.875 C379.69448914 301.84165588 379.70147827 302.80831177 379.7086792 303.80426025 C379.76334843 317.43367668 378.28389348 330.13528165 375.0625 343.375 C374.76437912 344.6047052 374.76437912 344.6047052 374.4602356 345.85925293 C371.80074023 356.69775881 368.17068762 366.46049608 363.0625 376.375 C362.58441895 377.32850342 362.58441895 377.32850342 362.09667969 378.30126953 C357.77583246 386.91496248 353.00954983 394.75571042 347.0625 402.375 C346.48371094 403.15746094 345.90492188 403.93992187 345.30859375 404.74609375 C334.40748687 419.08469869 320.85783254 431.61828933 305.0625 440.375 C304.4025 440.375 303.7425 440.375 303.0625 440.375 C303.22621094 441.23778564 303.38992188 442.10057129 303.55859375 442.98950195 C304.04349135 446.24729027 304.16173627 449.25379716 304.125 452.54296875 C304.11726562 453.68314453 304.10953125 454.82332031 304.1015625 455.99804688 C304.08867188 457.17431641 304.07578125 458.35058594 304.0625 459.5625 C304.03702403 461.91011046 304.01597977 464.25777445 304 466.60546875 C303.98259766 468.15850708 303.98259766 468.15850708 303.96484375 469.74291992 C303.94322294 472.48522914 303.94322294 472.48522914 305.0625 475.375 C306.0525 475.705 307.0425 476.035 308.0625 476.375 C313.97160365 483.52055843 314.955213 490.79733751 314.453125 499.6875 C313.67362875 507.04594461 311.68976998 511.34007423 306.0625 516.375 C305.7325 517.035 305.4025 517.695 305.0625 518.375 C304.4025 518.375 303.7425 518.375 303.0625 518.375 C302.88658381 521.56178936 302.78113222 524.7473164 302.6875 527.9375 C302.63722656 528.83275391 302.58695313 529.72800781 302.53515625 530.65039062 C302.42661403 535.58906183 302.71567648 538.60505458 305.9609375 542.46484375 C307.64627531 544.19345443 308.89985744 545.29367872 311.0625 546.375 C314.95035831 553.72269552 315.20788062 562.68627625 313.59375 570.703125 C310.95290584 578.68853473 305.37672705 585.31492716 298.0625 589.375 C291.65932207 591.97333291 285.00277154 593.29151795 278.25 594.625 C263.19802874 597.75129102 248.88320212 602.62820755 235.0625 609.375 C230.08618422 611.76211595 225.08663461 614.0907477 220.0625 616.375 C219.14017578 616.79620117 218.21785156 617.21740234 217.26757812 617.65136719 C177.95713667 635.43345677 140.57885305 641.65136937 99.3125 626.3125 C91.72595998 623.39292579 84.27692262 620.17950972 76.83325195 616.91601562 C17.96179542 591.14827181 -25.64305146 595.84182205 -84.28125 618.43359375 C-120.25036047 632.17633904 -155.37928628 631.42118082 -190.75 616.25 C-191.65927246 615.86038086 -192.56854492 615.47076172 -193.50537109 615.06933594 C-202.08333731 611.36355944 -210.51511948 607.37444838 -218.93847656 603.33251953 C-228.76164041 598.62728643 -238.48609122 594.36097617 -249.125 591.875 C-257.88089129 589.74549474 -263.75989501 586.91534304 -268.9375 579.375 C-269.42605469 578.67761719 -269.91460937 577.98023438 -270.41796875 577.26171875 C-274.93535495 569.73274176 -274.80576232 561.88397072 -273.9375 553.375 C-272.91015625 550.39453125 -272.91015625 550.39453125 -271.9375 548.375 C-271.2775 548.375 -270.6175 548.375 -269.9375 548.375 C-269.710625 547.67375 -269.48375 546.9725 -269.25 546.25 C-267.9375 543.375 -267.9375 543.375 -265.375 540.84375 C-261.81706714 536.66802652 -262.38235548 532.23365559 -262.625 527 C-262.64755859 526.07316406 -262.67011719 525.14632812 -262.69335938 524.19140625 C-262.75196323 521.91757665 -262.8339307 519.64715114 -262.9375 517.375 C-264.2575 516.715 -265.5775 516.055 -266.9375 515.375 C-266.9375 514.715 -266.9375 514.055 -266.9375 513.375 C-267.5975 513.375 -268.2575 513.375 -268.9375 513.375 C-274.23386102 504.49078151 -275.76036377 495.80515124 -273.21875 485.4453125 C-271.28013829 480.30173789 -268.82459905 476.26209905 -264.9375 472.375 C-264.2775 472.375 -263.6175 472.375 -262.9375 472.375 C-263.09992188 471.39660156 -263.26234375 470.41820312 -263.4296875 469.41015625 C-264.02909584 465.20053053 -264.08514494 461.05842634 -264.0625 456.8125 C-264.06636719 456.08353516 -264.07023437 455.35457031 -264.07421875 454.60351562 C-264.06668497 450.41849908 -263.75807162 446.4973955 -262.9375 442.375 C-263.66582031 442.10816406 -264.39414062 441.84132813 -265.14453125 441.56640625 C-273.02227403 438.20597052 -279.45771728 432.21043093 -285.61328125 426.390625 C-287.93167957 424.38004763 -290.29872955 422.9253887 -292.9375 421.375 C-295.9375 417.9612069 -295.9375 417.9612069 -295.9375 415.375 C-296.9275 415.375 -297.9175 415.375 -298.9375 415.375 C-300.328125 413.28515625 -300.328125 413.28515625 -301.9375 410.375 C-303.50762263 408.17627932 -305.09061795 405.99144586 -306.6875 403.8125 C-318.9375 386.88145918 -318.9375 386.88145918 -318.9375 382.375 C-319.5975 382.375 -320.2575 382.375 -320.9375 382.375 C-325.33203125 370.65625 -325.33203125 370.65625 -326.13549805 368.50415039 C-326.65983907 367.11213271 -327.19223828 365.72311685 -327.73364258 364.33764648 C-341.89338228 327.79739105 -338.44697722 283.93109963 -322.88671875 248.484375 C-315.66873924 232.82628502 -305.10717273 220.07644549 -293 207.9375 C-292.24574738 207.18072464 -292.24574738 207.18072464 -291.47625732 206.40866089 C-283.06022262 198.02171578 -274.49905206 190.91440028 -263.9375 185.375 C-263.25026855 185.00922852 -262.56303711 184.64345703 -261.85498047 184.26660156 C-240.15063431 172.91943471 -218.02860607 168.96708103 -193.9375 166.375 C-193.82792969 165.74335938 -193.71835937 165.11171875 -193.60546875 164.4609375 C-184.58559075 113.5682925 -161.43979632 67.78232501 -119.09375 36.546875 C-113.83768028 32.93007455 -108.42396207 29.62728422 -102.9375 26.375 C-102.1434375 25.86453125 -101.349375 25.3540625 -100.53125 24.828125 C-70.90301145 5.95534291 -34.52818974 -0.07501269 0 0 Z " fill="#D3D8DD" transform="translate(571.9375,50.625)"/>
<path d="M0 0 C0.7185741 3.93506594 1.15446427 7.7336835 1.28125 11.73046875 C1.31863281 12.78041016 1.35601563 13.83035156 1.39453125 14.91210938 C1.46522071 17.10740977 1.53552921 19.30272246 1.60546875 21.49804688 C1.64285156 22.54412109 1.68023438 23.59019531 1.71875 24.66796875 C1.74904297 25.61953857 1.77933594 26.5711084 1.81054688 27.55151367 C1.91122671 30.13717877 1.91122671 30.13717877 3 33 C3.99 33.33 4.98 33.66 6 34 C11.90910365 41.14555843 12.892713 48.42233751 12.390625 57.3125 C11.61112875 64.67094461 9.62726998 68.96507423 4 74 C3.67 74.66 3.34 75.32 3 76 C2.34 76 1.68 76 1 76 C0.82408381 79.18678936 0.71863222 82.3723164 0.625 85.5625 C0.57472656 86.45775391 0.52445313 87.35300781 0.47265625 88.27539062 C0.36411403 93.21406183 0.65317648 96.23005458 3.8984375 100.08984375 C5.58377531 101.81845443 6.83735744 102.91867872 9 104 C12.88785831 111.34769552 13.14538062 120.31127625 11.53125 128.328125 C8.89040584 136.31353473 3.31422705 142.93992716 -4 147 C-10.40317793 149.59833291 -17.05972846 150.91651795 -23.8125 152.25 C-38.86447126 155.37629102 -53.17929788 160.25320755 -67 167 C-71.97631578 169.38711595 -76.97586539 171.7157477 -82 174 C-82.92232422 174.42120117 -83.84464844 174.84240234 -84.79492188 175.27636719 C-124.10536333 193.05845677 -161.48364695 199.27636937 -202.75 183.9375 C-210.33654002 181.01792579 -217.78557738 177.80450972 -225.22924805 174.54101562 C-284.10070458 148.77327181 -327.70555146 153.46682205 -386.34375 176.05859375 C-422.31286047 189.80133904 -457.44178628 189.04618082 -492.8125 173.875 C-494.17640869 173.29057129 -494.17640869 173.29057129 -495.56787109 172.69433594 C-504.14583731 168.98855944 -512.57761948 164.99944838 -521.00097656 160.95751953 C-530.82414041 156.25228643 -540.54859122 151.98597617 -551.1875 149.5 C-559.94339129 147.37049474 -565.82239501 144.54034304 -571 137 C-571.48855469 136.30261719 -571.97710938 135.60523438 -572.48046875 134.88671875 C-576.99785495 127.35774176 -576.86826232 119.50897072 -576 111 C-574.97265625 108.01953125 -574.97265625 108.01953125 -574 106 C-573.34 106 -572.68 106 -572 106 C-571.773125 105.29875 -571.54625 104.5975 -571.3125 103.875 C-570 101 -570 101 -567.4375 98.46875 C-563.87956714 94.29302652 -564.44485548 89.85865559 -564.6875 84.625 C-564.71005859 83.69816406 -564.73261719 82.77132812 -564.75585938 81.81640625 C-564.81446323 79.54257665 -564.8964307 77.27215114 -565 75 C-566.32 74.34 -567.64 73.68 -569 73 C-569 72.34 -569 71.68 -569 71 C-569.66 71 -570.32 71 -571 71 C-576.29636102 62.11578151 -577.82286377 53.43015124 -575.28125 43.0703125 C-573.34263829 37.92673789 -570.88709905 33.88709905 -567 30 C-566.34 30 -565.68 30 -565 30 C-565.24169922 28.53433594 -565.24169922 28.53433594 -565.48828125 27.0390625 C-566.08947219 22.81050886 -566.18373162 18.64080973 -566.1875 14.375 C-566.19974609 13.63765625 -566.21199219 12.9003125 -566.22460938 12.140625 C-566.23580826 7.97463951 -565.87155235 4.74310471 -564 1 C-560.04202269 2.2271458 -556.56187192 3.69218213 -552.9375 5.6875 C-538.54169532 12.96567634 -522.97430479 17.13771188 -507 19 C-506.26955392 19.08692321 -505.53910784 19.17384641 -504.78652704 19.26340365 C-496.07817192 20.17888664 -487.38948675 20.14563707 -478.64590454 20.14044189 C-476.89421186 20.14302954 -475.14251978 20.14604381 -473.39082849 20.1494453 C-468.59915081 20.15747171 -463.80748814 20.15930242 -459.01580453 20.16004276 C-453.83899301 20.16190096 -448.66218914 20.16945214 -443.48538208 20.17617798 C-432.17506786 20.18973103 -420.8647572 20.19578136 -409.55443621 20.20018864 C-402.48446484 20.20295631 -395.41449483 20.20719463 -388.34452438 20.21169281 C-368.74771778 20.22388176 -349.15091226 20.23418166 -329.55410194 20.2375679 C-328.30106869 20.23778747 -327.04803543 20.23800703 -325.75703146 20.23823325 C-323.87313032 20.23856067 -323.87313032 20.23856067 -321.95117056 20.2388947 C-319.40641189 20.23933816 -316.86165321 20.23978472 -314.31689453 20.24023438 C-312.42348525 20.24056652 -312.42348525 20.24056652 -310.49182527 20.24090537 C-290.05307178 20.24485073 -269.61435401 20.26229842 -249.17561431 20.2855939 C-228.16258266 20.30934947 -207.14956889 20.32177167 -186.1365236 20.32293582 C-174.35018808 20.32385024 -162.56389909 20.32954368 -150.77757645 20.34775543 C-140.73855144 20.36321331 -130.69958735 20.36824351 -120.6605527 20.36001733 C-115.54605576 20.35613083 -110.43168129 20.35694176 -105.31719971 20.37107468 C-70.45569101 20.46488008 -70.45569101 20.46488008 -36.3125 13.8125 C-35.27722168 13.51641846 -34.24194336 13.22033691 -33.17529297 12.9152832 C-23.59123753 10.07142665 -9.29393711 0 0 0 Z " fill="#C1C7CD" transform="translate(874,493)"/>
<path d="M0 0 C16.43552905 8.39499214 35.79529792 16.93302462 54.5 17.6875 C55.94439453 17.76484375 55.94439453 17.76484375 57.41796875 17.84375 C81.9234117 18.53323491 103.95539287 10.67898783 126.34838867 1.5546875 C145.59319515 -6.26297197 166.76324687 -13.33548082 187.6953125 -13.55078125 C188.47640381 -13.5605751 189.25749512 -13.57036896 190.06225586 -13.58045959 C206.28364705 -13.74204206 221.79498468 -13.84561801 237.5 -9.3125 C239.09600134 -8.8944839 240.69236749 -8.47785864 242.2890625 -8.0625 C254.68777042 -4.70413302 266.3768594 0.18733565 278.15917969 5.25195312 C283.66066603 7.61593586 289.17038745 9.95907691 294.69241333 12.27459717 C296.49484761 13.03399677 298.29233453 13.80510634 300.08959961 14.57666016 C331.93694929 27.94925239 364.29088565 27.11653001 396.11914062 14.22119141 C403.81630439 11.00588339 411.43321218 7.60959348 419.05029297 4.21020508 C472.50518706 -19.38485327 472.50518706 -19.38485327 494.51953125 -10.96875 C496.78510142 -10.10280519 496.78510142 -10.10280519 500.5 -10.3125 C500.726875 -9.61125 500.95375 -8.91 501.1875 -8.1875 C502.99858035 -4.22037162 505.4978164 -0.3135918 509.5 1.6875 C513.38785831 9.03519552 513.64538062 17.99877625 512.03125 26.015625 C509.39040584 34.00103473 503.81422705 40.62742716 496.5 44.6875 C490.09682207 47.28583291 483.44027154 48.60401795 476.6875 49.9375 C461.63552874 53.06379102 447.32070212 57.94070755 433.5 64.6875 C428.52368422 67.07461595 423.52413461 69.4032477 418.5 71.6875 C417.57767578 72.10870117 416.65535156 72.52990234 415.70507812 72.96386719 C376.39463667 90.74595677 339.01635305 96.96386937 297.75 81.625 C290.16345998 78.70542579 282.71442262 75.49200972 275.27075195 72.22851562 C216.39929542 46.46077181 172.79444854 51.15432205 114.15625 73.74609375 C78.18713953 87.48883904 43.05821372 86.73368082 7.6875 71.5625 C6.32359131 70.97807129 6.32359131 70.97807129 4.93212891 70.38183594 C-3.64583731 66.67605944 -12.07761948 62.68694838 -20.50097656 58.64501953 C-30.32414041 53.93978643 -40.04859122 49.67347617 -50.6875 47.1875 C-59.44339129 45.05799474 -65.32239501 42.22784304 -70.5 34.6875 C-70.98855469 33.99011719 -71.47710937 33.29273438 -71.98046875 32.57421875 C-76.49785495 25.04524176 -76.36826232 17.19647072 -75.5 8.6875 C-74.47265625 5.70703125 -74.47265625 5.70703125 -73.5 3.6875 C-72.84 3.6875 -72.18 3.6875 -71.5 3.6875 C-71.273125 2.98625 -71.04625 2.285 -70.8125 1.5625 C-69.17791204 -2.01802601 -67.0841965 -4.34067402 -64.5 -7.3125 C-63.84 -8.3025 -63.18 -9.2925 -62.5 -10.3125 C-60.6875 -10.875 -60.6875 -10.875 -58.5 -11.3125 C-57.695625 -11.6425 -56.89125 -11.9725 -56.0625 -12.3125 C-38.15493339 -19.30081868 -15.86224235 -8.22556998 0 0 Z " fill="#D3D7DD" transform="translate(373.5,595.3125)"/>
<path d="M0 0 C0.91470012 4.68326461 1.18302799 9.24178122 1.1875 14 C1.19974609 14.68578125 1.21199219 15.3715625 1.22460938 16.078125 C1.23709379 20.43934895 0.601477 23.94883288 -1 28 C-1.6084375 27.71125 -2.216875 27.4225 -2.84375 27.125 C-16.94333278 21.153412 -30.84607228 23.89386535 -45 28 C-46.22203125 28.350625 -47.4440625 28.70125 -48.703125 29.0625 C-58.72457926 32.18607016 -68.14417508 36.52013558 -77.65698242 40.91845703 C-84.16856612 43.92422089 -90.64560784 46.68917003 -97.4375 49 C-102.0413088 50.58696995 -106.58722641 52.19835679 -111.0625 54.125 C-138.25225826 65.29055365 -171.36928736 63.93538654 -198.3125 52.875 C-199.46492188 52.37484375 -200.61734375 51.8746875 -201.8046875 51.359375 C-206.10398611 49.53033354 -210.4926783 48.20902276 -215 47 C-215 46.34 -215 45.68 -215 45 C-215.79921875 44.91105469 -216.5984375 44.82210937 -217.421875 44.73046875 C-221.9713575 43.80169885 -225.97987563 42.10306423 -230.25 40.3125 C-275.80417263 21.72339124 -321.73503902 19.65850401 -367.85546875 38.14453125 C-369.74134557 38.9398446 -371.62539644 39.73949848 -373.5078125 40.54296875 C-397.93032194 50.73267347 -397.93032194 50.73267347 -410 53 C-410.97453125 53.20238281 -411.9490625 53.40476562 -412.953125 53.61328125 C-430.15934514 56.66800874 -452.59065891 57.79597818 -468.9375 50.78515625 C-471.6175084 49.76492578 -474.33381495 49.15332885 -477.125 48.5 C-481.48685536 47.45646752 -485.13286714 46.2558275 -489 44 C-489 43.34 -489 42.68 -489 42 C-489.72445312 42.04640625 -490.44890625 42.0928125 -491.1953125 42.140625 C-494.35116483 41.98239285 -496.09862056 41.22245683 -498.875 39.75 C-499.67679687 39.33234375 -500.47859375 38.9146875 -501.3046875 38.484375 C-503.3375955 37.36480248 -505.34691188 36.20223794 -507.34375 35.01953125 C-510.97697148 32.93792641 -514.70021523 31.38131019 -518.625 29.9375 C-519.32085205 29.68145996 -520.0167041 29.42541992 -520.73364258 29.16162109 C-534.05076141 24.38236497 -547.58590571 21.03818032 -561 27 C-561.99 27 -562.98 27 -564 27 C-564.9341316 22.27003206 -565.15174471 17.6801336 -565.125 12.875 C-565.12886719 12.17246094 -565.13273437 11.46992188 -565.13671875 10.74609375 C-565.13031314 7.35752363 -565.05709649 4.23840671 -564 1 C-560.04202269 2.2271458 -556.56187192 3.69218213 -552.9375 5.6875 C-538.54169532 12.96567634 -522.97430479 17.13771188 -507 19 C-506.26955392 19.08692321 -505.53910784 19.17384641 -504.78652704 19.26340365 C-496.07817192 20.17888664 -487.38948675 20.14563707 -478.64590454 20.14044189 C-476.89421186 20.14302954 -475.14251978 20.14604381 -473.39082849 20.1494453 C-468.59915081 20.15747171 -463.80748814 20.15930242 -459.01580453 20.16004276 C-453.83899301 20.16190096 -448.66218914 20.16945214 -443.48538208 20.17617798 C-432.17506786 20.18973103 -420.8647572 20.19578136 -409.55443621 20.20018864 C-402.48446484 20.20295631 -395.41449483 20.20719463 -388.34452438 20.21169281 C-368.74771778 20.22388176 -349.15091226 20.23418166 -329.55410194 20.2375679 C-328.30106869 20.23778747 -327.04803543 20.23800703 -325.75703146 20.23823325 C-323.87313032 20.23856067 -323.87313032 20.23856067 -321.95117056 20.2388947 C-319.40641189 20.23933816 -316.86165321 20.23978472 -314.31689453 20.24023438 C-312.42348525 20.24056652 -312.42348525 20.24056652 -310.49182527 20.24090537 C-290.05307178 20.24485073 -269.61435401 20.26229842 -249.17561431 20.2855939 C-228.16258266 20.30934947 -207.14956889 20.32177167 -186.1365236 20.32293582 C-174.35018808 20.32385024 -162.56389909 20.32954368 -150.77757645 20.34775543 C-140.73855144 20.36321331 -130.69958735 20.36824351 -120.6605527 20.36001733 C-115.54605576 20.35613083 -110.43168129 20.35694176 -105.31719971 20.37107468 C-70.45569101 20.46488008 -70.45569101 20.46488008 -36.3125 13.8125 C-35.27722168 13.51641846 -34.24194336 13.22033691 -33.17529297 12.9152832 C-23.59123753 10.07142665 -9.29393711 0 0 0 Z " fill="#A3AAB3" transform="translate(874,493)"/>
</svg>
