<svg xmlns="http://www.w3.org/2000/svg" viewBox="0 0 64 64"><defs><style>.cls-1{isolation:isolate;}.cls-2{fill:#fb0;}.cls-3{fill:#00cced;}.cls-4{fill:#0095e8;}.cls-5{fill:none;stroke:#000;stroke-linecap:round;stroke-linejoin:round;stroke-width:2px;}.cls-6{opacity:0.25;mix-blend-mode:multiply;}.cls-7,.cls-8{mix-blend-mode:overlay;}.cls-8{fill:#fff;}</style></defs><title>Icon Color</title><g class="cls-1"><g id="Layer_1" data-name="Layer 1"><g id="Vector"><path class="cls-2" d="M46.38,31.72c0,.47,0,.94-.07,1.4H34.5V31.27a1.92,1.92,0,0,0-1.92-1.93H31.41a1.93,1.93,0,0,0-1.93,1.93v1.85H17.68c0-.46-.07-.93-.07-1.4a14.39,14.39,0,1,1,28.77,0Z"/><path class="cls-2" d="M36.47,14.5a.59.59,0,0,1-.34-.1A9,9,0,0,0,32,13.71a9.15,9.15,0,0,0-4.14.69.64.64,0,0,1-.89-.87l4.47-7.75A.64.64,0,0,1,32,5.46a.65.65,0,0,1,.56.32L37,13.53a.65.65,0,0,1-.11.79A.66.66,0,0,1,36.47,14.5Z"/><path class="cls-2" d="M24.36,15.65a.63.63,0,0,1-.32.15,8.76,8.76,0,0,0-3.62,2.12,8.93,8.93,0,0,0-2.72,3.19A.64.64,0,0,1,16.46,21L14.9,12.21a.64.64,0,0,1,.86-.72l8.4,3.06a.64.64,0,0,1,.2,1.1Z"/><path class="cls-2" d="M12.74,33.11h1.52a.62.62,0,0,0,0-.33,8.93,8.93,0,0,1,0-4.19,8.82,8.82,0,0,1,1.41-3.95.63.63,0,0,0,.15-.32.61.61,0,0,0-.1-.47A.65.65,0,0,0,15,23.6l-8.4,3.06a.65.65,0,0,0-.42.49.67.67,0,0,0,.22.61Z"/><path class="cls-2" d="M49.73,28.59a8.71,8.71,0,0,1,0,4.19.62.62,0,0,0,0,.33h1.52l6.38-5.35a.64.64,0,0,0,.22-.61.66.66,0,0,0-.41-.49L49,23.6a.65.65,0,0,0-.75.24.66.66,0,0,0,0,.8A8.91,8.91,0,0,1,49.73,28.59Z"/><path class="cls-2" d="M46.49,21.4a.61.61,0,0,1-.2-.29,8.83,8.83,0,0,0-2.72-3.19A8.79,8.79,0,0,0,40,15.8a.67.67,0,0,1-.55-.58.64.64,0,0,1,.42-.67l8.41-3.06a.63.63,0,0,1,.63.11.64.64,0,0,1,.22.61L47.54,21a.65.65,0,0,1-.59.53A.61.61,0,0,1,46.49,21.4Z"/><path class="cls-3" d="M29.48,33.12v4H3a2,2,0,0,1,0-4Z"/><path class="cls-3" d="M63,35.12a2,2,0,0,1-2,2H34.5v-4H61A2,2,0,0,1,63,35.12Z"/><path class="cls-4" d="M42.65,49.76a2.52,2.52,0,0,1-.53.66l-3.76,3.34-4.62,4.1a2.69,2.69,0,0,1-3.58,0l-4.6-4.1L22,50.57a2.9,2.9,0,0,1-.63-.81,2.61,2.61,0,0,1,4-3.31l3.42,3a.44.44,0,0,0,.73-.33V31.27a1.93,1.93,0,0,1,1.93-1.93h1.17a1.92,1.92,0,0,1,1.92,1.93V49.1a.44.44,0,0,0,.73.33l3.27-2.9a2.72,2.72,0,0,1,3.19-.4A2.66,2.66,0,0,1,42.65,49.76Z"/></g><g id="Line"><path class="cls-5" d="M46.38,31.72c0,.47,0,.94-.07,1.4H34.5V31.27a1.92,1.92,0,0,0-1.92-1.93H31.41a1.93,1.93,0,0,0-1.93,1.93v1.85H17.68c0-.46-.07-.93-.07-1.4a14.39,14.39,0,1,1,28.77,0Z"/><path class="cls-5" d="M36.47,14.5a.59.59,0,0,1-.34-.1A9,9,0,0,0,32,13.71a9.15,9.15,0,0,0-4.14.69.64.64,0,0,1-.89-.87l4.47-7.75A.64.64,0,0,1,32,5.46a.65.65,0,0,1,.56.32L37,13.53a.65.65,0,0,1-.11.79A.66.66,0,0,1,36.47,14.5Z"/><path class="cls-5" d="M24.36,15.65a.63.63,0,0,1-.32.15,8.76,8.76,0,0,0-3.62,2.12,8.93,8.93,0,0,0-2.72,3.19A.64.64,0,0,1,16.46,21L14.9,12.21a.64.64,0,0,1,.86-.72l8.4,3.06a.64.64,0,0,1,.2,1.1Z"/><path class="cls-5" d="M12.74,33.11h1.52a.62.62,0,0,0,0-.33,8.93,8.93,0,0,1,0-4.19,8.82,8.82,0,0,1,1.41-3.95.63.63,0,0,0,.15-.32.61.61,0,0,0-.1-.47A.65.65,0,0,0,15,23.6l-8.4,3.06a.65.65,0,0,0-.42.49.67.67,0,0,0,.22.61Z"/><path class="cls-5" d="M49.73,28.59a8.71,8.71,0,0,1,0,4.19.62.62,0,0,0,0,.33h1.52l6.38-5.35a.64.64,0,0,0,.22-.61.66.66,0,0,0-.41-.49L49,23.6a.65.65,0,0,0-.75.24.66.66,0,0,0,0,.8A8.91,8.91,0,0,1,49.73,28.59Z"/><path class="cls-5" d="M46.49,21.4a.61.61,0,0,1-.2-.29,8.83,8.83,0,0,0-2.72-3.19A8.79,8.79,0,0,0,40,15.8a.67.67,0,0,1-.55-.58.64.64,0,0,1,.42-.67l8.41-3.06a.63.63,0,0,1,.63.11.64.64,0,0,1,.22.61L47.54,21a.65.65,0,0,1-.59.53A.61.61,0,0,1,46.49,21.4Z"/><path class="cls-5" d="M29.48,33.12v4H3a2,2,0,0,1,0-4Z"/><path class="cls-5" d="M63,35.12a2,2,0,0,1-2,2H34.5v-4H61A2,2,0,0,1,63,35.12Z"/><path class="cls-5" d="M42.65,49.76a2.52,2.52,0,0,1-.53.66l-3.76,3.34-4.62,4.1a2.69,2.69,0,0,1-3.58,0l-4.6-4.1L22,50.57a2.9,2.9,0,0,1-.63-.81,2.61,2.61,0,0,1,4-3.31l3.42,3a.44.44,0,0,0,.73-.33V31.27a1.93,1.93,0,0,1,1.93-1.93h1.17a1.92,1.92,0,0,1,1.92,1.93V49.1a.44.44,0,0,0,.73.33l3.27-2.9a2.72,2.72,0,0,1,3.19-.4A2.66,2.66,0,0,1,42.65,49.76Z"/></g><g id="Shadow" class="cls-6"><path d="M25.33,46.45a2.61,2.61,0,0,0-4,3.31,2.9,2.9,0,0,0,.63.81l3.58,3.19,4.6,4.1a2.69,2.69,0,0,0,3.58,0l.71-.63-3.89-3.47L27,50.57a2.9,2.9,0,0,1-.63-.81,2.84,2.84,0,0,1-.13-2.52Z"/><path d="M8,37.12a2,2,0,1,1,0-4H3a2,2,0,0,0,0,4Z"/><path d="M31.57,13.36V5.65a.8.8,0,0,0-.13.13L27,13.53a.77.77,0,0,0-.08.19l1.39.51a10.54,10.54,0,0,1,3.62-.52.45.45,0,0,1,.07-.18l.1-.17Z"/><path d="M7.12,26.46a2,2,0,0,0-.76,1.3l6.38,5.35h1.52a.62.62,0,0,0,0-.33A7.27,7.27,0,0,1,14.08,30l-2.72-2.28C9.9,26.19,8.08,25.78,7.12,26.46Z"/><path d="M18.87,18.86c-.48-2.25-.95-4.5-1.43-6.76l-1.68-.61a.64.64,0,0,0-.86.72L16.46,21a.65.65,0,0,0,.58.53c.25,0,.46-.19.66-.44A8.86,8.86,0,0,0,18.87,18.86Z"/><path d="M22.61,31.72A14.37,14.37,0,0,1,34.5,17.56a14.71,14.71,0,0,0-2.5-.23,14.36,14.36,0,0,0-8.93,3.11,5.15,5.15,0,0,0-.37.67.65.65,0,0,1-.66.44l-.18-.05a14.88,14.88,0,0,0-1.72,2.07.62.62,0,0,1,.58.28.61.61,0,0,1,.1.47.6.6,0,0,1-.06.19c0,.07-.08.11-.09.13-.37.41-2.34,2.12-2.65,3.67-.14.66.19.46.21,1.84s-.28,2.07.16,2.57a1.32,1.32,0,0,0,.87.39H17.74l-.06,0v.06h5C22.64,32.66,22.61,32.19,22.61,31.72Z"/></g><g id="Highligth" class="cls-7"><path class="cls-8" d="M61,33.12H56a2,2,0,0,1,0,4h5a2,2,0,0,0,0-4Z"/><path class="cls-8" d="M46.25,33.11H44.73a.66.66,0,0,1,0-.33c.14-.36.57-.48.71-.54.71-.31.93-2.19.58-3.59,0,0-.24-1-2.72-4h0a.66.66,0,0,1,0-.8.65.65,0,0,1,.57-.27,14.79,14.79,0,0,0-1.72-2.06.58.58,0,0,1-.18,0,.65.65,0,0,1-.66-.44,4,4,0,0,0-.36-.66A14.33,14.33,0,0,0,32,17.33a14.71,14.71,0,0,0-2.5.23A14.37,14.37,0,0,1,41.38,31.72c0,.47,0,.94-.07,1.4h5s0,0,0,0S46.27,33.1,46.25,33.11Z"/><path class="cls-8" d="M57.71,26.85a1.45,1.45,0,0,0-.91-.8l-6.88,4a7.26,7.26,0,0,1-.16,2.74.62.62,0,0,0,0,.33h1.52C53.1,32,58.34,28.67,57.71,26.85Z"/><path class="cls-8" d="M48.24,11.49l-2,.58-1.39,7.09h0a21.15,21.15,0,0,1,1.4,1.95.4.4,0,0,0,.06.13.54.54,0,0,0,.14.16.61.61,0,0,0,.46.15.65.65,0,0,0,.59-.53l1.55-8.81a.51.51,0,0,0,0-.33A.79.79,0,0,0,48.24,11.49Z"/><path class="cls-8" d="M37,13.53,32.56,5.78a.65.65,0,0,0-.35-.26v8.19a10.55,10.55,0,0,1,3.51.52l1.38-.51A.73.73,0,0,0,37,13.53Z"/><path class="cls-8" d="M29.45,57.23l.71.63a2.69,2.69,0,0,0,3.58,0l4.62-4.1,3.76-3.34a2.52,2.52,0,0,0,.53-.66,2.66,2.66,0,0,0-1-3.63,2.72,2.72,0,0,0-3.19.4l-.79.7a2.64,2.64,0,0,1-.06,2.53,2.52,2.52,0,0,1-.53.66l-3.76,3.34Z"/></g></g></g></svg>