<svg xmlns="http://www.w3.org/2000/svg" viewBox="0 0 64 64"><defs><style>.cls-1{isolation:isolate;}.cls-2{fill:#fb0;}.cls-3{fill:#00cced;}.cls-4{fill:#0095e8;}.cls-5{fill:none;stroke:#000;stroke-linecap:round;stroke-linejoin:round;stroke-width:2px;}.cls-6{opacity:0.25;mix-blend-mode:multiply;}.cls-7,.cls-8{mix-blend-mode:overlay;}.cls-8{fill:#fff;}</style></defs><title>Icon Color</title><g class="cls-1"><g id="Layer_1" data-name="Layer 1"><g id="Vector"><path class="cls-2" d="M46.38,32.22c0,.47,0,.94-.07,1.4H38.43l-4.6-4.1a2.69,2.69,0,0,0-3.58,0l-4.62,4.1H17.68c0-.46-.07-.93-.07-1.4a14.39,14.39,0,1,1,28.77,0Z"/><path class="cls-2" d="M36.47,15a.59.59,0,0,1-.34-.1A9,9,0,0,0,32,14.21a9.09,9.09,0,0,0-4.14.69A.64.64,0,0,1,27,14l4.47-7.75A.66.66,0,0,1,32,6a.67.67,0,0,1,.56.32L37,14a.65.65,0,0,1-.11.79A.66.66,0,0,1,36.47,15Z"/><path class="cls-2" d="M24.36,16.15a.63.63,0,0,1-.32.15,8.76,8.76,0,0,0-3.62,2.12,9,9,0,0,0-2.72,3.19.65.65,0,0,1-.66.44.67.67,0,0,1-.59-.53L14.9,12.71a.64.64,0,0,1,.22-.61.67.67,0,0,1,.64-.11l8.4,3.06a.64.64,0,0,1,.42.68A.6.6,0,0,1,24.36,16.15Z"/><path class="cls-2" d="M12.74,33.61h1.52a.62.62,0,0,0,0-.33,8.93,8.93,0,0,1,0-4.19,8.82,8.82,0,0,1,1.41-3.95.63.63,0,0,0,.15-.32.61.61,0,0,0-.1-.47A.65.65,0,0,0,15,24.1l-8.4,3.06a.64.64,0,0,0-.2,1.1Z"/><path class="cls-2" d="M49.73,29.09a8.71,8.71,0,0,1,0,4.19.62.62,0,0,0,0,.33h1.52l6.38-5.35a.63.63,0,0,0,.22-.6.66.66,0,0,0-.41-.5L49,24.1a.65.65,0,0,0-.7,1A8.91,8.91,0,0,1,49.73,29.09Z"/><path class="cls-2" d="M46.49,21.9a.61.61,0,0,1-.2-.29,8.93,8.93,0,0,0-2.72-3.19A8.79,8.79,0,0,0,40,16.3a.67.67,0,0,1-.55-.58.64.64,0,0,1,.42-.67L48.24,12a.66.66,0,0,1,.63.11.64.64,0,0,1,.22.61l-1.55,8.81a.65.65,0,0,1-.59.53A.61.61,0,0,1,46.49,21.9Z"/><path class="cls-3" d="M25.63,33.62,21.87,37a2.52,2.52,0,0,0-.53.66H3a2,2,0,0,1,0-4Z"/><path class="cls-3" d="M63,35.62a2,2,0,0,1-2,2H42.64a2.9,2.9,0,0,0-.63-.81l-3.58-3.19H61A2,2,0,0,1,63,35.62Z"/><path class="cls-4" d="M42.14,41a2.64,2.64,0,0,1-3.48,0l-3.42-3a.44.44,0,0,0-.73.33v17.9A1.93,1.93,0,0,1,32.58,58H31.41a1.92,1.92,0,0,1-1.92-1.93V38.28a.44.44,0,0,0-.73-.33l-3.27,2.9a2.72,2.72,0,0,1-3.19.4,2.66,2.66,0,0,1-1-3.63,2.52,2.52,0,0,1,.53-.66l3.76-3.34,4.62-4.1a2.69,2.69,0,0,1,3.58,0l4.6,4.1L42,36.81a2.9,2.9,0,0,1,.63.81A2.69,2.69,0,0,1,42.14,41Z"/></g><g id="Line"><path class="cls-5" d="M46.38,32.22c0,.47,0,.94-.07,1.4H38.43l-4.6-4.1a2.69,2.69,0,0,0-3.58,0l-4.62,4.1H17.68c0-.46-.07-.93-.07-1.4a14.39,14.39,0,1,1,28.77,0Z"/><path class="cls-5" d="M36.47,15a.59.59,0,0,1-.34-.1A9,9,0,0,0,32,14.21a9.09,9.09,0,0,0-4.14.69A.64.64,0,0,1,27,14l4.47-7.75A.66.66,0,0,1,32,6a.67.67,0,0,1,.56.32L37,14a.65.65,0,0,1-.11.79A.66.66,0,0,1,36.47,15Z"/><path class="cls-5" d="M24.36,16.15a.63.63,0,0,1-.32.15,8.76,8.76,0,0,0-3.62,2.12,9,9,0,0,0-2.72,3.19.65.65,0,0,1-.66.44.67.67,0,0,1-.59-.53L14.9,12.71a.64.64,0,0,1,.22-.61.67.67,0,0,1,.64-.11l8.4,3.06a.64.64,0,0,1,.42.68A.6.6,0,0,1,24.36,16.15Z"/><path class="cls-5" d="M12.74,33.61h1.52a.62.62,0,0,0,0-.33,8.93,8.93,0,0,1,0-4.19,8.82,8.82,0,0,1,1.41-3.95.63.63,0,0,0,.15-.32.61.61,0,0,0-.1-.47A.65.65,0,0,0,15,24.1l-8.4,3.06a.64.64,0,0,0-.2,1.1Z"/><path class="cls-5" d="M49.73,29.09a8.71,8.71,0,0,1,0,4.19.62.62,0,0,0,0,.33h1.52l6.38-5.35a.63.63,0,0,0,.22-.6.66.66,0,0,0-.41-.5L49,24.1a.65.65,0,0,0-.7,1A8.91,8.91,0,0,1,49.73,29.09Z"/><path class="cls-5" d="M46.49,21.9a.61.61,0,0,1-.2-.29,8.93,8.93,0,0,0-2.72-3.19A8.79,8.79,0,0,0,40,16.3a.67.67,0,0,1-.55-.58.64.64,0,0,1,.42-.67L48.24,12a.66.66,0,0,1,.63.11.64.64,0,0,1,.22.61l-1.55,8.81a.65.65,0,0,1-.59.53A.61.61,0,0,1,46.49,21.9Z"/><path class="cls-5" d="M25.63,33.62,21.87,37a2.52,2.52,0,0,0-.53.66H3a2,2,0,0,1,0-4Z"/><path class="cls-5" d="M63,35.62a2,2,0,0,1-2,2H42.64a2.9,2.9,0,0,0-.63-.81l-3.58-3.19H61A2,2,0,0,1,63,35.62Z"/><path class="cls-5" d="M42.14,41a2.64,2.64,0,0,1-3.48,0l-3.42-3a.44.44,0,0,0-.73.33v17.9A1.93,1.93,0,0,1,32.58,58H31.41a1.92,1.92,0,0,1-1.92-1.93V38.28a.44.44,0,0,0-.73-.33l-3.27,2.9a2.72,2.72,0,0,1-3.19.4,2.66,2.66,0,0,1-1-3.63,2.52,2.52,0,0,1,.53-.66l3.76-3.34,4.62-4.1a2.69,2.69,0,0,1,3.58,0l4.6,4.1L42,36.81a2.9,2.9,0,0,1,.63.81A2.69,2.69,0,0,1,42.14,41Z"/></g><g id="Shadow" class="cls-6"><path d="M8,37.62a2,2,0,1,1,0-4H3a2,2,0,0,0,0,4Z"/><path d="M21.11,39.74a3.29,3.29,0,0,0,2.83,1.83,2.53,2.53,0,0,0,1.55-.72l.79-.7a4.1,4.1,0,0,1-.76-.92,4.84,4.84,0,0,1-.59-1.6c-.2-1.15,2.6-4.92,7.5-9C22.26,35.51,20.58,38.4,21.11,39.74Z"/><path d="M6.14,27.66a.7.7,0,0,0,0,.33.74.74,0,0,0,.19.27l6.38,5.35h1.52a.62.62,0,0,0,0-.33,7.27,7.27,0,0,1-.15-2.74L11.32,29C7.27,27.67,6.21,27.49,6.14,27.66Z"/><path d="M22.61,32.22A14.37,14.37,0,0,1,34.5,18.06a14.71,14.71,0,0,0-2.5-.23,14.36,14.36,0,0,0-8.93,3.11,6.1,6.1,0,0,0-.37.67.65.65,0,0,1-.66.44.61.61,0,0,1-.18-.05,15.49,15.49,0,0,0-1.72,2.07.62.62,0,0,1,.58.28.61.61,0,0,1,.1.47.6.6,0,0,1-.06.19.79.79,0,0,1-.09.13A14.67,14.67,0,0,0,18,29a4.09,4.09,0,0,0,.52,4.09,2.4,2.4,0,0,0,.76.54H17.74l-.06,0v.06h5C22.64,33.16,22.61,32.69,22.61,32.22Z"/><path d="M31.44,14V6.28h0L27,14a.77.77,0,0,0-.08.19l1.39.51a10.54,10.54,0,0,1,3.62-.52A.45.45,0,0,1,32,14v0Z"/><path d="M17,22.05c.14,0,.32-.15.66-.44a9.44,9.44,0,0,0,1.57-2.13h0l-2.91-7.09-.6-.4a.67.67,0,0,0-.64.11.64.64,0,0,0-.22.61C15.7,20.22,16.45,22,17,22.05Z"/></g><g id="Highligth" class="cls-7"><path class="cls-8" d="M48.87,12.1a.77.77,0,0,0-.3-.14.61.61,0,0,0-.33,0l-1.86.68C45.69,14.79,45,16.91,44.32,19l.46.5h0c1.33,1.53,1.39,1.71,1.51,2.07a.4.4,0,0,0,.06.13.54.54,0,0,0,.14.16.61.61,0,0,0,.46.15.65.65,0,0,0,.59-.53C47.84,19.83,49.17,12.34,48.87,12.1Z"/><path class="cls-8" d="M61,33.62H56a2,2,0,0,1,0,4h5a2,2,0,0,0,0-4Z"/><path class="cls-8" d="M57.85,27.66a.66.66,0,0,0-.14-.31C57,26.58,54,28.27,53,28.89l-3.08,1.65a7.26,7.26,0,0,1-.16,2.74.62.62,0,0,0,0,.33h1.52C52.91,32.54,58.12,29.09,57.85,27.66Z"/><path class="cls-8" d="M46.25,33.61H44.73a2.63,2.63,0,0,1,0-.33,3.94,3.94,0,0,1,.74-1.71,4.07,4.07,0,0,0,.28-3.48,14.61,14.61,0,0,0-2.45-2.95h0a.63.63,0,0,1,0-.79.65.65,0,0,1,.57-.28A14.79,14.79,0,0,0,42.13,22a.58.58,0,0,1-.18,0,.65.65,0,0,1-.66-.44,4.16,4.16,0,0,0-.37-.66A14.28,14.28,0,0,0,32,17.83a14.71,14.71,0,0,0-2.5.23A14.37,14.37,0,0,1,41.38,32.22c0,.47,0,.94-.07,1.4h5s0,0,0,0S46.27,33.6,46.25,33.61Z"/><path class="cls-8" d="M37.77,40.13l.89.8a2.61,2.61,0,0,0,4-3.31l-9.57-7.76c1.21,1,5.32,4.54,4.93,9A7.36,7.36,0,0,1,37.77,40.13Z"/><path class="cls-8" d="M37,14l-4.39-7.6v7.79a10.25,10.25,0,0,1,3.08.51l1.38-.51A.73.73,0,0,0,37,14Z"/></g></g></g></svg>